# xmcd
#
# Track frame offsets:
#	150
#	12955
#	29067
#	42237
#	63380
#
# Disc length: 1031 seconds
#
# Revision: 1
# Processed by: cddbd v1.5.1PL0 Copyright (c) Steve Scherf et al.
# Submitted via: EasyCDDAExtractor 6.0.0.1
#
DISCID=3d040505
DTITLE=No Beans - Back In Town
DYEAR=1998
DGENRE=Country
TTITLE0=Big River
TTITLE1=Just a Fool
TTITLE2=Don't Rock The Jukebox
TTITLE3=City of New Orleans
TTITLE4=Oh Lonesome Me
EXTD=
EXTT0=
EXTT1=
EXTT2=
EXTT3=
EXTT4=
PLAYORDER=
